<svg xmlns="http://www.w3.org/2000/svg" viewBox="0 0 512 512" width="512" height="512">
  <defs>
    <linearGradient id="bg" x1="0%" y1="0%" x2="100%" y2="100%">
      <stop offset="0%" stop-color="#4f46e5" />
      <stop offset="100%" stop-color="#1e1b4b" />
    </linearGradient>
    <linearGradient id="book" x1="0%" y1="0%" x2="100%" y2="100%">
      <stop offset="0%" stop-color="#ffffff" />
      <stop offset="100%" stop-color="#cbd5e1" />
    </linearGradient>
  </defs>
  <rect width="512" height="512" rx="128" fill="url(#bg)" />
  <g transform="translate(96, 96)">
    <!-- Open Book Icon -->
    <path d="M32 48 C80 24 160 24 200 48 L200 256 C160 232 80 232 32 256 Z" fill="url(#book)" opacity="0.9" />
    <path d="M288 48 C240 24 160 24 120 48 L120 256 C160 232 240 232 288 256 Z" transform="translate(80,0)" fill="url(#book)" opacity="0.9" />
    <!-- Barcode lines inside book -->
    <rect x="70" y="80" width="8" height="100" fill="#312e81" />
    <rect x="84" y="80" width="16" height="100" fill="#312e81" />
    <rect x="106" y="80" width="6" height="100" fill="#312e81" />
    <rect x="118" y="80" width="12" height="100" fill="#312e81" />
    <rect x="136" y="80" width="18" height="100" fill="#312e81" />
    <rect x="160" y="80" width="8" height="100" fill="#312e81" />
    
    <rect x="230" y="80" width="8" height="100" fill="#312e81" />
    <rect x="244" y="80" width="16" height="100" fill="#312e81" />
    <rect x="266" y="80" width="6" height="100" fill="#312e81" />
    <rect x="278" y="80" width="12" height="100" fill="#312e81" />
  </g>
</svg>
